<?xml version="1.0" encoding="utf-8"?>
<!-- Generator: Adobe Illustrator 27.4.1, SVG Export Plug-In . SVG Version: 6.00 Build 0)  -->
<svg version="1.1" xmlns="http://www.w3.org/2000/svg" xmlns:xlink="http://www.w3.org/1999/xlink" x="0px" y="0px"
	 viewBox="0 0 160 75" style="enable-background:new 0 0 160 75;" xml:space="preserve">
<style type="text/css">
	.st0{fill:none;stroke:#000000;stroke-width:3.9275;stroke-linecap:square;stroke-miterlimit:3.8637;}
	.st1{fill:none;stroke:#000000;stroke-width:3.9275;stroke-miterlimit:3.8637;}
	.st2{fill:none;stroke:#000000;stroke-width:3.9275;stroke-linecap:square;stroke-miterlimit:1.4142;}
</style>
<g id="Ebene_1">
</g>
<g id="Logo_Köniz">
	<g>
		<g>
			<path class="st0" d="M37.81,4.12h27.23v27.92H37.81V4.12L37.81,4.12z M29.95,71.5V39.57H2.72"/>
			<path class="st1" d="M2.72,39.57c0,19.61,11.55,31.93,27.23,31.93"/>
			<polyline class="st0" points="37.81,71.5 37.81,39.57 65.04,39.57 			"/>
			<path class="st1" d="M65.04,39.57c0,19.61-11.55,31.93-27.23,31.93"/>
			<polygon class="st0" points="29.95,4.12 2.72,4.12 2.72,32.03 29.95,32.03 29.95,4.12 			"/>
			<path class="st2" d="M0.77,2.19"/>
		</g>
		<g>
			<path d="M84.7,5.15c-0.34-1.61-1.74-2.04-3.18-2.04c-3.31,0-4.51,2.9-4.43,5.42c0.15,3.46,1.2,5.35,5.07,5.42
				c0.92,0,1.83-0.15,2.69-0.43V9.71h-3.07V8.1h4.94v6.68c-1.55,0.47-3.1,0.79-4.64,0.79c-1.91,0-3.46-0.24-4.94-1.55
				c-1.5-1.31-2.02-3.57-2.02-5.48c0-1.4,0.47-2.94,1.16-4.15c1.18-2.06,3.16-2.88,5.46-2.88c2.28,0,4.81,1.05,4.92,3.65H84.7z"/>
			<path d="M90.4,10.93c-0.13,1.65,0.54,3.35,2.36,3.35c1.38,0,2.08-0.54,2.28-1.91h1.87c-0.28,2.13-1.93,3.2-4.17,3.2
				c-3.01,0-4.21-2.13-4.21-4.9c0-2.75,1.38-5.05,4.36-5.05c2.81,0.06,4.13,1.83,4.13,4.43v0.88H90.4z M95.15,9.69
				c0.04-1.57-0.67-2.79-2.39-2.79c-1.48,0-2.36,1.25-2.36,2.79H95.15z"/>
			<path d="M100.54,7.24h0.04c0.56-1.18,1.72-1.63,2.67-1.63c1.78,0,2.82,0.6,3.31,1.76c0.67-1.16,1.74-1.76,3.12-1.76
				c2.17,0,3.5,1.37,3.5,3.05v6.62h-1.78V9.73c0-1.29-0.19-2.75-2.26-2.75c-0.54,0-1.74,0.3-2.08,1.46
				c-0.24,0.86-0.19,1.8-0.19,2.02v4.83h-1.78V9.73c0-1.63-0.37-2.75-2.08-2.75c-0.73,0-1.78,0.28-2.32,1.53
				c-0.21,0.49-0.13,1.72-0.13,1.95v4.83H98.8V5.9h1.74V7.24z"/>
			<path d="M116.81,10.93c-0.13,1.65,0.54,3.35,2.36,3.35c1.38,0,2.08-0.54,2.28-1.91h1.87c-0.28,2.13-1.93,3.2-4.17,3.2
				c-3.01,0-4.21-2.13-4.21-4.9c0-2.75,1.38-5.05,4.36-5.05c2.81,0.06,4.13,1.83,4.13,4.43v0.88H116.81z M121.56,9.69
				c0.04-1.57-0.67-2.79-2.39-2.79c-1.48,0-2.36,1.25-2.36,2.79H121.56z"/>
			<path d="M125.11,1.78h2.11v1.93h-2.11V1.78z M125.28,15.28V5.9h1.78v9.39H125.28z"/>
			<path d="M131.36,7.28h0.04c0.6-1.18,1.91-1.66,2.84-1.66c0.65,0,3.55,0.17,3.55,3.18v6.49h-1.78V9.37c0-1.55-0.65-2.39-2.15-2.39
				c0,0-0.97-0.06-1.72,0.69c-0.26,0.26-0.75,0.67-0.75,2.51v5.11h-1.78V5.9h1.74V7.28z"/>
			<path d="M146.71,1.78h1.78v11.84c0,0.56,0.06,1.12,0.09,1.66h-1.81l-0.06-1.4v-0.09h-0.04c-0.64,1.31-1.87,1.78-3.24,1.78
				c-2.79,0-3.89-2.56-3.89-4.97c0-2.54,1.29-4.97,4.21-4.97c1.2,0,2.38,0.43,2.92,1.55h0.04V1.78z M144.08,14.33
				c2.15,0,2.66-2,2.66-3.76c0-1.7-0.64-3.72-2.66-3.72c-2.13,0-2.66,1.96-2.66,3.72C141.42,12.33,142.08,14.33,144.08,14.33z"/>
			<path d="M151.97,10.93c-0.13,1.65,0.54,3.35,2.36,3.35c1.38,0,2.08-0.54,2.28-1.91h1.87c-0.28,2.13-1.93,3.2-4.17,3.2
				c-3.01,0-4.21-2.13-4.21-4.9c0-2.75,1.38-5.05,4.36-5.05c2.81,0.06,4.13,1.83,4.13,4.43v0.88H151.97z M156.72,9.69
				c0.04-1.57-0.67-2.79-2.39-2.79c-1.48,0-2.36,1.25-2.36,2.79H156.72z"/>
			<path d="M83.39,20.48h4.43l-4.66,5.95l5.03,7.56h-4.64l-4.45-7.18h-0.04v7.18h-3.74v-13.5h3.74v5.93h0.04L83.39,20.48z"/>
			<path d="M99.17,29.29c0,3.46-2.52,4.97-5.46,4.97c-2.94,0-5.46-1.51-5.46-4.97c0-3.46,2.52-4.97,5.46-4.97
				C96.65,24.32,99.17,25.83,99.17,29.29z M89.67,23.19v-2.71h3.18v2.71H89.67z M93.71,32.21c1.5,0,1.81-1.59,1.81-2.92
				c0-1.33-0.32-2.92-1.81-2.92c-1.5,0-1.81,1.59-1.81,2.92C91.9,30.62,92.22,32.21,93.71,32.21z M94.57,23.19v-2.71h3.18v2.71
				H94.57z"/>
			<path d="M103.9,25.63c0.8-0.94,1.74-1.31,2.94-1.31c2.02,0,3.52,1.31,3.52,3.39v6.28h-3.55v-5.52c-0.04-0.92-0.26-1.91-1.37-1.91
				c-1.76,0-1.53,1.93-1.53,2.04v5.39h-3.55v-6.98c0-0.84-0.02-1.4-0.11-2.41h3.61L103.9,25.63z"/>
			<path d="M112.1,22.99v-2.51h3.59v2.51H112.1z M112.12,33.99V24.6h3.55v9.39H112.12z"/>
			<path d="M117.2,26.84V24.6h8.3v2.24l-4.94,4.9h5.16v2.24h-8.71v-2.24l4.86-4.9H117.2z"/>
		</g>
	</g>
</g>
</svg>
