<?xml version="1.0" encoding="utf-8"?>
<!-- Generator: Adobe Illustrator 27.4.1, SVG Export Plug-In . SVG Version: 6.00 Build 0)  -->
<svg version="1.1" xmlns="http://www.w3.org/2000/svg" xmlns:xlink="http://www.w3.org/1999/xlink" x="0px" y="0px"
	 viewBox="0 0 125 52" style="enable-background:new 0 0 125 52;" xml:space="preserve">
<g id="Ebene_1">
</g>
<g id="Logo_decidim">
	<g>
		<path d="M85.31,50.23c-0.19-0.18-0.28-0.41-0.28-0.68c0-0.26,0.1-0.48,0.3-0.67c0.2-0.19,0.43-0.28,0.7-0.28
			c0.26,0,0.49,0.09,0.69,0.28c0.2,0.19,0.31,0.41,0.31,0.67c0,0.27-0.1,0.49-0.29,0.68c-0.19,0.18-0.43,0.27-0.71,0.27
			C85.74,50.5,85.5,50.41,85.31,50.23L85.31,50.23z"/>
		<path d="M90.31,50.34c-0.47-0.19-0.83-0.45-1.08-0.77c-0.25-0.32-0.38-0.68-0.38-1.08v-0.14c0-0.14,0.07-0.21,0.21-0.21h0.69
			c0.06,0,0.12,0.01,0.15,0.04c0.04,0.03,0.06,0.06,0.06,0.1v0.14c0,0.35,0.18,0.66,0.55,0.93c0.37,0.26,0.83,0.39,1.39,0.39
			c0.56,0,1.01-0.13,1.35-0.38c0.35-0.25,0.52-0.57,0.52-0.96c0-0.27-0.09-0.49-0.26-0.66c-0.17-0.17-0.38-0.31-0.63-0.4
			c-0.25-0.1-0.62-0.22-1.11-0.37c-0.6-0.17-1.1-0.34-1.48-0.52c-0.39-0.17-0.72-0.41-0.98-0.72c-0.27-0.31-0.4-0.7-0.4-1.17
			c0-0.69,0.27-1.24,0.82-1.64c0.54-0.41,1.25-0.61,2.14-0.61c0.59,0,1.11,0.1,1.57,0.29c0.46,0.19,0.81,0.46,1.06,0.8
			c0.25,0.34,0.37,0.72,0.37,1.14c0,0.14-0.07,0.21-0.21,0.21h-0.66c-0.14,0-0.21-0.04-0.21-0.11v-0.1c0-0.37-0.17-0.67-0.52-0.92
			c-0.35-0.25-0.82-0.37-1.41-0.37c-0.55,0-0.99,0.11-1.32,0.33c-0.33,0.22-0.5,0.52-0.5,0.91c0,0.37,0.16,0.64,0.48,0.84
			c0.32,0.19,0.81,0.39,1.49,0.58c0.62,0.17,1.13,0.34,1.52,0.5c0.39,0.16,0.72,0.4,1,0.71c0.28,0.31,0.42,0.72,0.42,1.21
			c0,0.7-0.27,1.26-0.82,1.68c-0.54,0.42-1.27,0.63-2.19,0.63C91.31,50.63,90.78,50.53,90.31,50.34L90.31,50.34z"/>
		<path d="M97.69,50.37l-2.26-7.74c-0.01-0.02-0.02-0.05-0.02-0.08c0-0.04,0.02-0.08,0.06-0.11c0.04-0.03,0.08-0.05,0.14-0.05h0.76
			c0.12,0,0.19,0.06,0.22,0.18l1.68,6.29c0.01,0.03,0.03,0.05,0.05,0.05c0.02,0,0.04-0.02,0.05-0.05l1.73-6.29
			c0.03-0.12,0.11-0.18,0.23-0.18h0.71c0.12,0,0.19,0.06,0.23,0.18l1.76,6.29c0.01,0.03,0.03,0.05,0.05,0.05
			c0.02,0,0.04-0.02,0.05-0.05l1.73-6.29c0.03-0.12,0.11-0.18,0.24-0.18l0.74,0.02c0.07,0,0.13,0.02,0.16,0.07
			c0.03,0.04,0.04,0.1,0.02,0.18l-2.29,7.73c-0.03,0.12-0.11,0.18-0.23,0.18h-0.79c-0.12,0-0.19-0.06-0.23-0.18l-1.74-5.95
			c-0.01-0.03-0.03-0.05-0.05-0.05c-0.02,0-0.04,0.02-0.05,0.05l-1.68,5.95c-0.03,0.12-0.11,0.18-0.23,0.18h-0.81
			C97.8,50.55,97.72,50.49,97.69,50.37L97.69,50.37z"/>
		<path d="M107.56,40.68c-0.16-0.16-0.24-0.36-0.24-0.6s0.08-0.45,0.24-0.6c0.16-0.15,0.37-0.23,0.63-0.23
			c0.26,0,0.47,0.08,0.63,0.23c0.16,0.15,0.24,0.35,0.24,0.6s-0.08,0.45-0.24,0.6c-0.16,0.16-0.37,0.23-0.63,0.23
			C107.93,40.92,107.72,40.84,107.56,40.68L107.56,40.68z M107.63,50.34V42.6c0-0.14,0.07-0.21,0.21-0.21h0.73
			c0.14,0,0.21,0.07,0.21,0.21v7.74c0,0.14-0.07,0.21-0.21,0.21h-0.73C107.7,50.55,107.63,50.48,107.63,50.34L107.63,50.34z"/>
		<path d="M112.2,50.34c-0.47-0.19-0.83-0.45-1.08-0.77c-0.25-0.32-0.38-0.68-0.38-1.08v-0.14c0-0.14,0.07-0.21,0.21-0.21h0.69
			c0.06,0,0.12,0.01,0.15,0.04c0.04,0.03,0.06,0.06,0.06,0.1v0.14c0,0.35,0.18,0.66,0.55,0.93c0.37,0.26,0.83,0.39,1.39,0.39
			c0.56,0,1.01-0.13,1.35-0.38c0.34-0.25,0.52-0.57,0.52-0.96c0-0.27-0.09-0.49-0.26-0.66c-0.17-0.17-0.38-0.31-0.63-0.4
			c-0.25-0.1-0.62-0.22-1.11-0.37c-0.6-0.17-1.1-0.34-1.48-0.52c-0.39-0.17-0.71-0.41-0.98-0.72c-0.27-0.31-0.4-0.7-0.4-1.17
			c0-0.69,0.27-1.24,0.81-1.64c0.54-0.41,1.26-0.61,2.14-0.61c0.59,0,1.12,0.1,1.57,0.29c0.46,0.19,0.81,0.46,1.06,0.8
			c0.25,0.34,0.37,0.72,0.37,1.14c0,0.14-0.07,0.21-0.21,0.21h-0.66c-0.14,0-0.21-0.04-0.21-0.11v-0.1c0-0.37-0.18-0.67-0.52-0.92
			c-0.35-0.25-0.82-0.37-1.41-0.37c-0.55,0-0.99,0.11-1.32,0.33c-0.33,0.22-0.5,0.52-0.5,0.91c0,0.37,0.16,0.64,0.48,0.84
			c0.32,0.19,0.81,0.39,1.49,0.58c0.62,0.17,1.13,0.34,1.52,0.5c0.39,0.16,0.72,0.4,1,0.71c0.28,0.31,0.42,0.72,0.42,1.21
			c0,0.7-0.27,1.26-0.81,1.68c-0.54,0.42-1.27,0.63-2.19,0.63C113.2,50.63,112.67,50.53,112.2,50.34L112.2,50.34z"/>
		<path d="M119.41,50.34c-0.47-0.19-0.83-0.45-1.08-0.77c-0.25-0.32-0.38-0.68-0.38-1.08v-0.14c0-0.14,0.07-0.21,0.21-0.21h0.69
			c0.06,0,0.12,0.01,0.15,0.04c0.04,0.03,0.06,0.06,0.06,0.1v0.14c0,0.35,0.18,0.66,0.55,0.93c0.37,0.26,0.83,0.39,1.39,0.39
			c0.56,0,1.01-0.13,1.35-0.38c0.35-0.25,0.52-0.57,0.52-0.96c0-0.27-0.09-0.49-0.26-0.66c-0.17-0.17-0.38-0.31-0.63-0.4
			c-0.25-0.1-0.62-0.22-1.11-0.37c-0.6-0.17-1.1-0.34-1.48-0.52c-0.39-0.17-0.72-0.41-0.98-0.72c-0.27-0.31-0.4-0.7-0.4-1.17
			c0-0.69,0.27-1.24,0.82-1.64c0.54-0.41,1.25-0.61,2.14-0.61c0.59,0,1.12,0.1,1.57,0.29c0.46,0.19,0.81,0.46,1.06,0.8
			c0.25,0.34,0.37,0.72,0.37,1.14c0,0.14-0.07,0.21-0.21,0.21h-0.66c-0.14,0-0.21-0.04-0.21-0.11v-0.1c0-0.37-0.17-0.67-0.52-0.92
			c-0.35-0.25-0.82-0.37-1.41-0.37c-0.55,0-0.99,0.11-1.32,0.33c-0.33,0.22-0.5,0.52-0.5,0.91c0,0.37,0.16,0.64,0.48,0.84
			c0.32,0.19,0.81,0.39,1.49,0.58c0.62,0.17,1.13,0.34,1.52,0.5c0.39,0.16,0.72,0.4,1,0.71c0.28,0.31,0.42,0.72,0.42,1.21
			c0,0.7-0.27,1.26-0.81,1.68c-0.54,0.42-1.27,0.63-2.19,0.63C120.41,50.63,119.87,50.53,119.41,50.34L119.41,50.34z"/>
		<path d="M38.66,4.93c0,0.5-0.04,0.88-0.11,1.12c-0.11,0.39-0.31,0.69-0.6,0.91C37.66,7.19,37.3,7.3,36.87,7.3
			c-0.24,0-0.45-0.05-0.65-0.14c-0.2-0.09-0.37-0.23-0.5-0.4c-0.01-0.02-0.02-0.03-0.04-0.02c-0.01,0.01-0.02,0.02-0.02,0.04v2.1
			c0,0.08-0.04,0.12-0.12,0.12h-0.41c-0.08,0-0.12-0.04-0.12-0.12V2.75c0-0.08,0.04-0.12,0.12-0.12h0.41c0.08,0,0.12,0.04,0.12,0.12
			V3.1c0,0.02,0.01,0.03,0.02,0.03c0.01,0,0.02,0,0.04-0.01c0.13-0.17,0.3-0.31,0.49-0.41c0.2-0.1,0.42-0.14,0.66-0.14
			c0.42,0,0.78,0.11,1.07,0.33c0.29,0.22,0.49,0.51,0.59,0.89C38.61,4.05,38.66,4.43,38.66,4.93L38.66,4.93z M37.96,5.62
			c0.03-0.17,0.05-0.4,0.05-0.69c0-0.28-0.01-0.51-0.04-0.67c-0.02-0.16-0.07-0.3-0.13-0.43c-0.07-0.22-0.2-0.39-0.39-0.52
			c-0.18-0.13-0.4-0.19-0.66-0.19c-0.24,0-0.44,0.06-0.61,0.19c-0.16,0.13-0.28,0.3-0.36,0.51c-0.05,0.12-0.09,0.26-0.12,0.43
			c-0.02,0.16-0.04,0.39-0.04,0.68c0,0.29,0.01,0.52,0.04,0.69c0.02,0.17,0.07,0.31,0.13,0.44c0.07,0.21,0.19,0.37,0.36,0.5
			c0.17,0.12,0.36,0.19,0.59,0.19c0.24,0,0.45-0.06,0.63-0.18c0.18-0.12,0.3-0.28,0.38-0.48C37.88,5.94,37.93,5.79,37.96,5.62
			L37.96,5.62z"/>
		<path d="M40.57,6.96c-0.31-0.22-0.53-0.53-0.65-0.93c-0.08-0.28-0.13-0.65-0.13-1.11c0-0.46,0.04-0.83,0.12-1.11
			c0.12-0.39,0.34-0.69,0.65-0.92c0.31-0.22,0.69-0.34,1.14-0.34c0.44,0,0.81,0.11,1.12,0.34c0.31,0.22,0.52,0.53,0.64,0.91
			c0.08,0.29,0.13,0.66,0.13,1.12c0,0.47-0.04,0.84-0.13,1.11c-0.12,0.39-0.34,0.7-0.65,0.93C42.5,7.19,42.13,7.3,41.7,7.3
			C41.25,7.3,40.88,7.19,40.57,6.96L40.57,6.96z M42.44,6.49c0.21-0.16,0.35-0.38,0.42-0.65c0.05-0.19,0.07-0.5,0.07-0.92
			c0-0.44-0.02-0.74-0.07-0.92c-0.07-0.27-0.2-0.49-0.41-0.65c-0.21-0.16-0.47-0.24-0.77-0.24c-0.29,0-0.54,0.08-0.74,0.24
			c-0.21,0.16-0.34,0.38-0.42,0.65c-0.05,0.18-0.07,0.48-0.07,0.92c0,0.44,0.02,0.74,0.07,0.92c0.07,0.27,0.2,0.49,0.41,0.65
			c0.21,0.16,0.46,0.24,0.77,0.24C41.99,6.73,42.23,6.65,42.44,6.49L42.44,6.49z"/>
		<path d="M45.55,7.12l-1.27-4.35c-0.01-0.01-0.01-0.03-0.01-0.05c0-0.02,0.01-0.05,0.03-0.06c0.02-0.02,0.05-0.03,0.08-0.03h0.43
			c0.07,0,0.11,0.03,0.13,0.1l0.94,3.54c0.01,0.02,0.01,0.03,0.03,0.03c0.01,0,0.02-0.01,0.03-0.03l0.97-3.54
			c0.02-0.07,0.06-0.1,0.13-0.1h0.4c0.07,0,0.11,0.03,0.13,0.1l0.99,3.54c0.01,0.02,0.02,0.03,0.03,0.03c0.01,0,0.02-0.01,0.03-0.03
			l0.97-3.54c0.02-0.07,0.06-0.1,0.14-0.1l0.42,0.01c0.04,0,0.07,0.01,0.09,0.04c0.02,0.02,0.02,0.06,0.01,0.1l-1.29,4.34
			c-0.02,0.07-0.06,0.1-0.13,0.1h-0.44c-0.07,0-0.11-0.03-0.13-0.1l-0.98-3.35c-0.01-0.02-0.01-0.03-0.03-0.03
			c-0.01,0-0.02,0.01-0.03,0.03l-0.94,3.35c-0.02,0.07-0.06,0.1-0.13,0.1h-0.45C45.61,7.22,45.57,7.19,45.55,7.12L45.55,7.12z"/>
		<path d="M53.59,6.56c0.2-0.12,0.35-0.28,0.46-0.49c0.01-0.03,0.03-0.05,0.06-0.06c0.03-0.01,0.06-0.01,0.09,0.01l0.26,0.15
			c0.07,0.04,0.09,0.09,0.05,0.15c-0.14,0.3-0.36,0.54-0.65,0.72c-0.29,0.18-0.64,0.27-1.03,0.27c-0.42,0-0.78-0.1-1.07-0.3
			c-0.29-0.2-0.5-0.48-0.63-0.84c-0.12-0.3-0.17-0.72-0.17-1.25c0-0.26,0-0.47,0.01-0.62c0.01-0.15,0.03-0.3,0.07-0.43
			c0.1-0.39,0.31-0.71,0.62-0.94c0.31-0.24,0.69-0.35,1.13-0.35c0.53,0,0.94,0.14,1.24,0.41c0.3,0.27,0.49,0.66,0.58,1.15
			c0.04,0.19,0.05,0.5,0.05,0.91c0,0.08-0.04,0.12-0.12,0.12h-2.9c-0.03,0-0.05,0.02-0.05,0.04c0,0.3,0.02,0.52,0.05,0.66
			c0.07,0.27,0.21,0.49,0.42,0.65c0.21,0.16,0.49,0.24,0.81,0.24C53.15,6.74,53.39,6.68,53.59,6.56L53.59,6.56z M52.05,3.36
			c-0.19,0.15-0.32,0.36-0.38,0.62c-0.04,0.12-0.06,0.33-0.07,0.62c0,0.03,0.02,0.05,0.05,0.05h2.33c0.03,0,0.04-0.01,0.04-0.05
			C54,4.33,53.99,4.13,53.96,4.01c-0.07-0.27-0.2-0.49-0.4-0.65c-0.2-0.16-0.46-0.24-0.77-0.24C52.49,3.12,52.24,3.2,52.05,3.36
			L52.05,3.36z"/>
		<path d="M58.29,2.7c0.06,0.02,0.08,0.07,0.06,0.15l-0.09,0.4c-0.02,0.07-0.07,0.1-0.15,0.07C58,3.28,57.85,3.26,57.67,3.27
			c-0.31,0.01-0.57,0.13-0.78,0.35c-0.21,0.22-0.31,0.5-0.31,0.84v2.65c0,0.08-0.04,0.12-0.12,0.12h-0.41
			c-0.08,0-0.12-0.04-0.12-0.12V2.75c0-0.08,0.04-0.12,0.12-0.12h0.41c0.08,0,0.12,0.04,0.12,0.12v0.51c0,0.02,0,0.04,0.01,0.04
			c0.01,0,0.02,0,0.03-0.02c0.13-0.22,0.29-0.39,0.48-0.51c0.2-0.12,0.42-0.18,0.68-0.18C57.99,2.59,58.16,2.62,58.29,2.7L58.29,2.7
			z"/>
		<path d="M61.69,6.56c0.2-0.12,0.35-0.28,0.46-0.49c0.01-0.03,0.03-0.05,0.06-0.06c0.03-0.01,0.06-0.01,0.09,0.01l0.26,0.15
			c0.07,0.04,0.09,0.09,0.05,0.15c-0.14,0.3-0.36,0.54-0.65,0.72c-0.29,0.18-0.63,0.27-1.03,0.27c-0.42,0-0.78-0.1-1.07-0.3
			c-0.29-0.2-0.5-0.48-0.63-0.84c-0.12-0.3-0.17-0.72-0.17-1.25c0-0.26,0-0.47,0.01-0.62c0.01-0.15,0.03-0.3,0.07-0.43
			c0.1-0.39,0.31-0.71,0.62-0.94c0.31-0.24,0.69-0.35,1.13-0.35c0.53,0,0.94,0.14,1.24,0.41c0.3,0.27,0.49,0.66,0.58,1.15
			c0.04,0.19,0.05,0.5,0.05,0.91c0,0.08-0.04,0.12-0.12,0.12h-2.9c-0.03,0-0.05,0.02-0.05,0.04c0,0.3,0.02,0.52,0.05,0.66
			c0.07,0.27,0.21,0.49,0.42,0.65c0.21,0.16,0.49,0.24,0.81,0.24C61.26,6.74,61.49,6.68,61.69,6.56L61.69,6.56z M60.15,3.36
			c-0.19,0.15-0.32,0.36-0.38,0.62C59.73,4.1,59.71,4.3,59.7,4.59c0,0.03,0.01,0.05,0.05,0.05h2.33c0.03,0,0.05-0.01,0.05-0.05
			c-0.01-0.27-0.03-0.46-0.05-0.58c-0.07-0.27-0.2-0.49-0.4-0.65c-0.2-0.16-0.46-0.24-0.77-0.24C60.59,3.12,60.34,3.2,60.15,3.36
			L60.15,3.36z"/>
		<path d="M66.98,0.87h0.41c0.08,0,0.12,0.04,0.12,0.12v6.11c0,0.08-0.04,0.12-0.12,0.12h-0.41c-0.08,0-0.12-0.04-0.12-0.12V6.76
			c0-0.02-0.01-0.03-0.02-0.03c-0.01,0-0.02,0-0.04,0.01c-0.13,0.18-0.3,0.31-0.49,0.41c-0.2,0.1-0.42,0.14-0.66,0.14
			c-0.42,0-0.78-0.11-1.07-0.33C64.3,6.75,64.11,6.46,64,6.08c-0.08-0.27-0.13-0.66-0.13-1.15c0-0.5,0.04-0.88,0.11-1.12
			c0.11-0.39,0.31-0.69,0.6-0.91c0.29-0.22,0.65-0.33,1.08-0.33c0.24,0,0.45,0.05,0.65,0.14c0.2,0.09,0.37,0.23,0.5,0.4
			c0.01,0.02,0.02,0.02,0.04,0.02c0.01-0.01,0.02-0.02,0.02-0.04V0.99C66.86,0.91,66.9,0.87,66.98,0.87L66.98,0.87z M66.81,5.61
			c0.02-0.16,0.04-0.39,0.04-0.68c0-0.29-0.01-0.52-0.04-0.68c-0.02-0.17-0.07-0.31-0.13-0.44c-0.07-0.2-0.19-0.37-0.36-0.49
			c-0.17-0.12-0.36-0.19-0.59-0.19c-0.24,0-0.45,0.06-0.63,0.18c-0.18,0.12-0.3,0.28-0.38,0.48c-0.07,0.13-0.13,0.28-0.16,0.45
			c-0.03,0.17-0.05,0.4-0.05,0.69c0,0.28,0.01,0.51,0.04,0.67c0.02,0.16,0.07,0.3,0.13,0.43c0.07,0.22,0.2,0.39,0.39,0.52
			c0.18,0.13,0.4,0.19,0.66,0.19c0.24,0,0.45-0.06,0.61-0.19c0.16-0.13,0.28-0.3,0.36-0.51C66.74,5.91,66.78,5.77,66.81,5.61
			L66.81,5.61z"/>
		<path d="M77.13,4.93c0,0.5-0.04,0.88-0.13,1.15c-0.11,0.38-0.31,0.67-0.59,0.89c-0.29,0.22-0.64,0.33-1.07,0.33
			c-0.24,0-0.46-0.05-0.66-0.14c-0.2-0.1-0.36-0.23-0.49-0.41c-0.01-0.01-0.02-0.02-0.04-0.01c-0.01,0-0.02,0.01-0.02,0.03v0.34
			c0,0.08-0.04,0.12-0.12,0.12h-0.41c-0.08,0-0.12-0.04-0.12-0.12V0.99c0-0.08,0.04-0.12,0.12-0.12h0.41c0.08,0,0.12,0.04,0.12,0.12
			v2.09c0,0.02,0.01,0.03,0.02,0.04c0.01,0.01,0.02,0,0.04-0.02c0.13-0.18,0.3-0.31,0.5-0.4c0.2-0.09,0.42-0.14,0.65-0.14
			c0.43,0,0.79,0.11,1.08,0.33c0.29,0.22,0.49,0.52,0.6,0.91C77.1,4.05,77.13,4.43,77.13,4.93L77.13,4.93z M76.45,5.59
			c0.02-0.16,0.04-0.38,0.04-0.67c0-0.3-0.02-0.53-0.05-0.69c-0.03-0.17-0.09-0.32-0.16-0.45c-0.08-0.2-0.21-0.36-0.38-0.48
			c-0.18-0.12-0.38-0.18-0.63-0.18c-0.23,0-0.43,0.06-0.59,0.19c-0.17,0.12-0.29,0.29-0.36,0.49c-0.06,0.13-0.1,0.27-0.13,0.44
			c-0.02,0.17-0.04,0.39-0.04,0.68c0,0.29,0.01,0.52,0.04,0.68c0.02,0.16,0.06,0.31,0.12,0.43c0.08,0.21,0.2,0.38,0.36,0.51
			c0.16,0.13,0.37,0.19,0.61,0.19c0.25,0,0.47-0.06,0.66-0.19c0.18-0.13,0.31-0.3,0.39-0.52C76.39,5.9,76.43,5.76,76.45,5.59
			L76.45,5.59z"/>
		<path d="M78.06,8.92V8.6c0-0.08,0.02-0.12,0.06-0.12h0.06c0.24,0,0.42-0.03,0.55-0.1c0.13-0.07,0.24-0.18,0.34-0.35
			c0.09-0.17,0.2-0.43,0.3-0.78c0-0.01,0-0.03,0-0.06l-1.53-4.43c-0.01-0.01-0.01-0.03-0.01-0.05c0-0.02,0.01-0.05,0.03-0.06
			c0.02-0.02,0.05-0.03,0.08-0.03h0.43c0.07,0,0.12,0.03,0.14,0.1l1.17,3.56c0.01,0.03,0.02,0.04,0.03,0.04
			c0.01,0,0.02-0.01,0.03-0.04l1.14-3.56c0.02-0.07,0.06-0.1,0.13-0.1h0.43c0.04,0,0.07,0.01,0.09,0.04
			c0.02,0.02,0.02,0.06,0.01,0.1l-1.67,4.85c-0.14,0.4-0.28,0.71-0.41,0.9c-0.13,0.19-0.28,0.33-0.48,0.4
			C78.8,9,78.53,9.04,78.19,9.04h-0.06C78.08,9.04,78.06,9,78.06,8.92L78.06,8.92z"/>
		<path d="M53.64,29.48c0-1.03-0.16-1.84-0.51-2.45c-0.35-0.58-0.89-0.91-1.56-0.91c-0.75,0-1.28,0.3-1.66,0.91
			c-0.37,0.58-0.58,1.42-0.58,2.47c0,0.93,0.19,1.75,0.49,2.33c0.37,0.63,0.96,1,1.73,1c0.72,0,1.26-0.37,1.63-1
			C53.48,31.28,53.64,30.44,53.64,29.48 M53.95,19.15h2.73c0.16,0,0.28,0.12,0.28,0.28V35.2c0,0.16-0.12,0.28-0.28,0.28h-2.73
			c-0.16,0-0.28-0.12-0.28-0.28v-0.77c0-0.09-0.07-0.12-0.14-0.05c-0.61,0.79-1.47,1.28-2.68,1.28c-2.19,0-3.83-1.31-4.5-3.41
			c-0.28-0.86-0.4-1.82-0.4-2.82c0-1.03,0.12-2.01,0.42-2.89c0.68-1.91,2.22-3.24,4.55-3.24c1.19,0,2.03,0.44,2.61,1.17
			c0.07,0.09,0.14,0.05,0.14-0.05v-4.99C53.67,19.27,53.78,19.15,53.95,19.15"/>
		<path d="M62.12,27.5c-0.07,0.23-0.12,0.47-0.16,0.75c0,0.07,0.05,0.12,0.12,0.12h4.03c0.07,0,0.12-0.05,0.09-0.12
			c-0.05-0.26-0.07-0.47-0.12-0.65c-0.28-0.93-0.98-1.47-2.03-1.47C63.05,26.12,62.42,26.62,62.12,27.5 M69.58,30.23
			c-0.02,0.19-0.14,0.28-0.3,0.28h-7.21c-0.07,0-0.12,0.05-0.09,0.12c0.05,0.35,0.14,0.65,0.26,0.93c0.37,0.79,1.12,1.31,2.47,1.31
			c1.1-0.02,1.84-0.52,2.36-1.21c0.12-0.16,0.23-0.19,0.37-0.05l1.68,1.66c0.14,0.14,0.14,0.26,0.02,0.4
			c-1.05,1.31-2.78,2.03-4.74,2.01c-2.66,0-4.5-1.33-5.29-3.45c-0.33-0.79-0.49-1.75-0.49-2.85c-0.02-0.89,0.09-1.75,0.35-2.47
			c0.7-2.19,2.59-3.62,5.06-3.62c3.2,0,5.06,2.05,5.46,4.97C69.58,28.88,69.6,29.53,69.58,30.23"/>
		<path d="M71.14,32.17c-0.28-0.82-0.4-1.75-0.4-2.75c0-1.17,0.16-2.03,0.4-2.71c0.75-2.1,2.68-3.41,5.18-3.41
			c2.57,0,4.55,1.45,5.16,3.29c0.12,0.35,0.19,0.63,0.19,0.84c0.02,0.16-0.07,0.28-0.23,0.3l-2.68,0.4
			c-0.16,0.02-0.28-0.05-0.33-0.23l-0.07-0.37c-0.21-0.77-0.98-1.4-2.05-1.4c-1,0-1.7,0.54-1.98,1.4c-0.16,0.44-0.26,1.1-0.26,1.91
			c0,0.86,0.09,1.49,0.23,1.91c0.28,0.91,0.98,1.49,2.01,1.49c0.98,0,1.75-0.56,2.03-1.45c0.02-0.05,0.02-0.09,0.02-0.14
			c0.02-0.02,0.02-0.05,0.02-0.07c0.02-0.19,0.16-0.26,0.33-0.23l2.68,0.42c0.16,0.02,0.26,0.14,0.23,0.3
			c-0.02,0.19-0.07,0.42-0.14,0.65c-0.68,2.1-2.73,3.34-5.16,3.34C73.83,35.67,71.91,34.32,71.14,32.17"/>
		<path d="M83.12,35.2V23.75c0-0.16,0.12-0.28,0.28-0.28h2.73c0.16,0,0.28,0.12,0.28,0.28V35.2c0,0.16-0.12,0.28-0.28,0.28H83.4
			C83.23,35.48,83.12,35.37,83.12,35.2 M82.95,20.29c0-1.1,0.77-1.84,1.84-1.84c1.07,0,1.84,0.75,1.84,1.84
			c0,1.05-0.79,1.84-1.84,1.84C83.72,22.14,82.95,21.34,82.95,20.29"/>
		<path d="M95.83,29.48c0-1.03-0.16-1.84-0.51-2.45c-0.35-0.58-0.89-0.91-1.56-0.91c-0.75,0-1.28,0.3-1.66,0.91
			c-0.37,0.58-0.58,1.42-0.58,2.47c0,0.93,0.19,1.75,0.49,2.33c0.37,0.63,0.96,1,1.73,1c0.72,0,1.26-0.37,1.63-1
			C95.67,31.28,95.83,30.44,95.83,29.48 M96.14,19.15h2.73c0.16,0,0.28,0.12,0.28,0.28V35.2c0,0.16-0.12,0.28-0.28,0.28h-2.73
			c-0.16,0-0.28-0.12-0.28-0.28v-0.77c0-0.09-0.07-0.12-0.14-0.05c-0.61,0.79-1.47,1.28-2.68,1.28c-2.19,0-3.83-1.31-4.5-3.41
			c-0.28-0.86-0.4-1.82-0.4-2.82c0-1.03,0.12-2.01,0.42-2.89c0.68-1.91,2.22-3.24,4.55-3.24c1.19,0,2.03,0.44,2.61,1.17
			c0.07,0.09,0.14,0.05,0.14-0.05v-4.99C95.86,19.27,95.97,19.15,96.14,19.15"/>
		<path d="M101.15,35.2V23.75c0-0.16,0.12-0.28,0.28-0.28h2.73c0.16,0,0.28,0.12,0.28,0.28V35.2c0,0.16-0.12,0.28-0.28,0.28h-2.73
			C101.27,35.48,101.15,35.37,101.15,35.2 M100.99,20.29c0-1.1,0.77-1.84,1.84-1.84c1.07,0,1.84,0.75,1.84,1.84
			c0,1.05-0.79,1.84-1.84,1.84C101.76,22.14,100.99,21.34,100.99,20.29"/>
		<path d="M123.62,27.48v7.72c0,0.16-0.12,0.28-0.28,0.28h-2.73c-0.16,0-0.28-0.12-0.28-0.28v-7c0-1.26-0.7-2.08-1.8-2.08
			c-1.07,0-1.84,0.79-1.84,2.05v7.02c0,0.16-0.12,0.28-0.28,0.28h-2.71c-0.16,0-0.28-0.12-0.28-0.28v-7c0-1.26-0.75-2.08-1.84-2.08
			c-1,0-1.7,0.63-1.84,1.68v7.4c0,0.16-0.12,0.28-0.28,0.28h-2.73c-0.16,0-0.28-0.12-0.28-0.28V23.77c0-0.16,0.12-0.28,0.28-0.28
			h2.73c0.16,0,0.28,0.12,0.28,0.28v0.91c0,0.09,0.07,0.14,0.14,0.05c0.65-0.98,1.68-1.42,2.96-1.42c1.56,0,2.75,0.7,3.38,1.89
			c0.05,0.09,0.09,0.09,0.16,0c0.7-1.31,1.94-1.89,3.36-1.89C122.18,23.3,123.62,24.84,123.62,27.48"/>
		<path d="M0.44,15.05C0.44,15.04,0.44,15.04,0.44,15.05c0-3.33,2.69-6.02,6.01-6.02h4.81c0.66,0,1.2,0.54,1.2,1.2v24.05
			c0,0.66-0.54,1.2-1.2,1.2H6.45c-3.32,0-6.01-2.69-6.01-6.01c0,0,0-0.01,0-0.01V15.05L0.44,15.05z"/>
		<path d="M26.9,34.28c0,0.66-0.54,1.2-1.2,1.2h-9.62c-0.66,0-1.2-0.54-1.2-1.2V1.83c0-0.66,0.54-1.2,1.2-1.2h9.62
			c0.66,0,1.2,0.54,1.2,1.2V34.28L26.9,34.28z"/>
		<path d="M42.53,29.47c0,3.32-2.69,6.01-6.01,6.01c-3.32,0-6.01-2.69-6.01-6.01c0-3.32,2.69-6.01,6.01-6.01
			C39.84,23.46,42.53,26.15,42.53,29.47"/>
	</g>
</g>
</svg>
