<?xml version="1.0" encoding="utf-8"?>
<!-- Generator: Adobe Illustrator 27.4.1, SVG Export Plug-In . SVG Version: 6.00 Build 0)  -->
<svg version="1.1" xmlns="http://www.w3.org/2000/svg" xmlns:xlink="http://www.w3.org/1999/xlink" x="0px" y="0px"
	 viewBox="0 0 36 36" style="enable-background:new 0 0 36 36;" xml:space="preserve">
<style type="text/css">
	.st0{opacity:0.75;}
	.st1{opacity:0.5;fill:#960F64;}
	.st2{opacity:0.3;fill:#960F64;}
	.st3{opacity:0.1;fill:#960F64;}
	.st4{fill:#960F64;}
</style>
<g id="Ebene_1">
</g>
<g id="letzte_Aktivitäten">
	<g>
		<g class="st0">
			<path class="st1" d="M24.55,16.39L24.55,16.39c-0.23-0.72-0.56-1.37-0.98-1.95c-0.63-0.87-1.46-1.56-2.39-2.03
				c-0.93-0.47-1.98-0.73-3.06-0.73c-0.67,0-1.36,0.1-2.03,0.31c-0.72,0.23-1.37,0.56-1.95,0.99c-0.87,0.63-1.56,1.46-2.03,2.39
				c-0.47,0.93-0.73,1.98-0.73,3.06c0,0.67,0.1,1.36,0.31,2.03c0.23,0.72,0.56,1.37,0.98,1.95c0.63,0.87,1.46,1.56,2.39,2.03
				c0.93,0.47,1.98,0.73,3.06,0.73c0.67,0,1.36-0.1,2.03-0.31c0.72-0.23,1.37-0.56,1.95-0.98c0.87-0.63,1.56-1.46,2.03-2.39
				c0.47-0.93,0.73-1.98,0.73-3.06C24.86,17.75,24.76,17.07,24.55,16.39z M22.12,21.32c-0.3,0.42-0.67,0.79-1.09,1.1
				c-0.42,0.31-0.9,0.55-1.43,0.72c-0.5,0.16-1,0.23-1.49,0.23c-1.05,0-2.06-0.34-2.89-0.94c-0.42-0.3-0.79-0.67-1.1-1.09
				c-0.31-0.42-0.55-0.9-0.72-1.43c-0.16-0.5-0.23-1-0.23-1.49c0-1.05,0.34-2.06,0.94-2.89c0.3-0.42,0.67-0.79,1.09-1.1
				c0.42-0.31,0.9-0.55,1.43-0.72c0.5-0.16,1-0.23,1.49-0.23c1.05,0,2.06,0.34,2.89,0.94c0.42,0.3,0.79,0.67,1.1,1.09
				c0.31,0.42,0.55,0.9,0.72,1.43v0c0.16,0.5,0.23,1,0.23,1.49C23.06,19.47,22.72,20.48,22.12,21.32z"/>
			<path class="st2" d="M30.07,16.73c-0.21-1.5-0.7-2.91-1.39-4.16c-1.05-1.88-2.57-3.44-4.39-4.52c-1.82-1.08-3.93-1.69-6.15-1.69
				c-0.56,0-1.14,0.04-1.71,0.12c-1.5,0.21-2.91,0.7-4.16,1.39c-1.88,1.05-3.44,2.57-4.52,4.39c-1.08,1.82-1.69,3.93-1.69,6.15
				c0,0.56,0.04,1.14,0.12,1.71c0.21,1.5,0.7,2.91,1.39,4.16c1.05,1.88,2.57,3.44,4.39,4.52c1.82,1.08,3.93,1.69,6.15,1.69
				c0.56,0,1.14-0.04,1.71-0.12c1.5-0.21,2.91-0.7,4.16-1.39c1.88-1.05,3.44-2.57,4.52-4.39c1.08-1.82,1.69-3.93,1.69-6.15
				C30.19,17.87,30.15,17.3,30.07,16.73z M27.89,22.1c-0.65,1.72-1.75,3.25-3.18,4.42c-1.43,1.16-3.17,1.96-5.13,2.24
				c-0.5,0.07-0.99,0.1-1.48,0.1c-1.28,0-2.52-0.24-3.67-0.67c-1.72-0.65-3.25-1.75-4.42-3.18c-1.16-1.43-1.96-3.17-2.24-5.13
				c-0.07-0.5-0.11-0.99-0.11-1.48c0-1.28,0.24-2.52,0.67-3.67c0.65-1.72,1.75-3.25,3.18-4.42c1.43-1.16,3.17-1.96,5.13-2.24
				c0.5-0.07,0.99-0.11,1.48-0.11c1.28,0,2.52,0.24,3.67,0.67c1.72,0.65,3.25,1.75,4.42,3.18c1.16,1.43,1.96,3.17,2.24,5.13l0,0
				c0.07,0.5,0.1,0.99,0.1,1.48C28.56,19.72,28.33,20.95,27.89,22.1z"/>
			<path class="st3" d="M35.55,16.96c-0.19-2.28-0.81-4.43-1.78-6.36c-1.45-2.9-3.67-5.32-6.37-7.01c-2.7-1.69-5.89-2.67-9.27-2.67
				c-0.49,0-0.99,0.02-1.49,0.06c-2.28,0.19-4.43,0.81-6.36,1.78c-2.9,1.45-5.32,3.67-7.01,6.37c-1.69,2.7-2.67,5.89-2.67,9.27
				c0,0.49,0.02,0.99,0.06,1.49c0.19,2.28,0.81,4.43,1.78,6.36c1.45,2.9,3.67,5.32,6.37,7.01c2.7,1.69,5.89,2.67,9.27,2.67
				c0.49,0,0.99-0.02,1.49-0.06c2.28-0.19,4.43-0.81,6.36-1.78c2.9-1.45,5.32-3.67,7.01-6.37c1.69-2.7,2.67-5.89,2.67-9.27
				C35.62,17.95,35.6,17.45,35.55,16.96z M33.05,24.32c-1.09,2.74-2.91,5.14-5.25,6.91c-2.34,1.77-5.19,2.92-8.33,3.19
				c-0.46,0.04-0.91,0.06-1.36,0.06c-2.06,0-4.05-0.4-5.88-1.12c-2.74-1.09-5.14-2.91-6.91-5.25c-1.77-2.34-2.92-5.19-3.19-8.33
				c-0.04-0.46-0.06-0.91-0.06-1.36c0-2.06,0.4-4.05,1.12-5.88C4.27,9.78,6.1,7.39,8.44,5.61c2.34-1.77,5.19-2.92,8.33-3.19
				c0.46-0.04,0.91-0.06,1.36-0.06c2.06,0,4.05,0.4,5.88,1.12c2.74,1.09,5.14,2.91,6.91,5.25c1.77,2.34,2.92,5.19,3.19,8.33
				c0.04,0.46,0.06,0.91,0.06,1.36C34.17,20.51,33.77,22.49,33.05,24.32z"/>
		</g>
		<circle class="st4" cx="18.21" cy="18.46" r="2.18"/>
	</g>
</g>
</svg>
