<?xml version="1.0" encoding="utf-8"?>
<!-- Generator: Adobe Illustrator 27.4.1, SVG Export Plug-In . SVG Version: 6.00 Build 0)  -->
<svg version="1.1" id="grosse_Kreise" xmlns="http://www.w3.org/2000/svg" xmlns:xlink="http://www.w3.org/1999/xlink" x="0px"
	 y="0px" viewBox="0 0 355 355" style="enable-background:new 0 0 355 355;" xml:space="preserve">
<style type="text/css">
	.st0{opacity:0.75;}
	.st1{opacity:0.8;fill:#FFFFFF;}
	.st2{opacity:0.6;fill:#FFFFFF;}
	.st3{opacity:0.4;fill:#FFFFFF;}
	.st4{opacity:0.2;fill:#FFFFFF;}
	.st5{opacity:0.1;fill:#FFFFFF;}
</style>
<g>
	<g class="st0">
		<path class="st1" d="M217.67,165.07L217.67,165.07c-1.41-4.46-3.5-8.54-6.12-12.13c-3.94-5.39-9.06-9.69-14.86-12.64
			c-5.81-2.95-12.3-4.56-18.99-4.56c-4.18,0-8.44,0.63-12.62,1.95c-4.46,1.41-8.54,3.5-12.13,6.12c-5.39,3.94-9.69,9.06-12.64,14.86
			c-2.95,5.81-4.56,12.3-4.56,18.99c0,4.18,0.63,8.44,1.95,12.62c1.41,4.46,3.5,8.54,6.12,12.13c3.94,5.39,9.06,9.69,14.87,12.64
			c5.81,2.95,12.3,4.56,18.99,4.56c4.18,0,8.44-0.63,12.62-1.95c4.46-1.41,8.54-3.5,12.13-6.12c5.39-3.94,9.69-9.06,12.64-14.86
			c2.95-5.81,4.56-12.3,4.56-18.99C219.62,173.51,218.99,169.26,217.67,165.07z M202.56,195.67c-1.87,2.59-4.14,4.89-6.77,6.81
			c-2.62,1.92-5.6,3.44-8.88,4.48c-3.08,0.97-6.19,1.43-9.24,1.43c-6.51,0-12.8-2.09-17.98-5.83c-2.59-1.87-4.89-4.14-6.81-6.77
			c-1.92-2.62-3.44-5.6-4.48-8.88c-0.97-3.08-1.43-6.19-1.43-9.24c0-6.51,2.09-12.8,5.83-17.98c1.87-2.59,4.14-4.89,6.77-6.81
			c2.62-1.92,5.6-3.44,8.88-4.48c3.08-0.97,6.19-1.43,9.24-1.43c6.51,0,12.8,2.09,17.98,5.83c2.59,1.87,4.89,4.14,6.81,6.77
			c1.92,2.62,3.44,5.6,4.48,8.88v0c0.97,3.08,1.43,6.19,1.43,9.24C208.39,184.2,206.3,190.5,202.56,195.67z"/>
		<path class="st2" d="M251.96,167.14c-1.33-9.35-4.33-18.07-8.66-25.87c-6.5-11.71-15.98-21.36-27.29-28.08
			c-11.3-6.73-24.44-10.53-38.23-10.53c-3.51,0-7.06,0.25-10.63,0.75c-9.35,1.33-18.07,4.33-25.87,8.66
			c-11.71,6.5-21.36,15.98-28.08,27.29c-6.73,11.3-10.53,24.44-10.53,38.23c0,3.51,0.25,7.06,0.75,10.63
			c1.33,9.35,4.33,18.07,8.66,25.87c6.5,11.71,15.98,21.36,27.29,28.08c11.3,6.73,24.44,10.53,38.23,10.53
			c3.51,0,7.06-0.25,10.63-0.75c9.35-1.33,18.07-4.33,25.87-8.66c11.71-6.5,21.36-15.98,28.08-27.29
			c6.73-11.3,10.53-24.44,10.53-38.23C252.71,174.26,252.46,170.71,251.96,167.14z M238.44,200.56
			c-4.05,10.72-10.89,20.21-19.75,27.45c-8.86,7.23-19.72,12.21-31.89,13.94c-3.1,0.44-6.17,0.65-9.21,0.65
			c-7.95,0-15.64-1.46-22.79-4.16c-10.72-4.05-20.22-10.89-27.45-19.75c-7.23-8.86-12.21-19.72-13.94-31.89
			c-0.44-3.1-0.65-6.17-0.65-9.21c0-7.95,1.46-15.64,4.16-22.79c4.05-10.72,10.89-20.22,19.75-27.45
			c8.86-7.23,19.72-12.21,31.89-13.94c3.1-0.44,6.17-0.65,9.21-0.65c7.95,0,15.64,1.46,22.79,4.16
			c10.72,4.05,20.21,10.89,27.45,19.75c7.23,8.86,12.21,19.72,13.94,31.89l0,0c0.44,3.1,0.65,6.17,0.65,9.21
			C242.6,185.72,241.14,193.41,238.44,200.56z"/>
		<path class="st3" d="M286.07,168.57c-1.19-14.18-5.06-27.51-11.06-39.52c-9.01-18.01-22.81-33.04-39.61-43.57
			c-16.8-10.53-36.61-16.57-57.59-16.57c-3.06,0-6.13,0.13-9.23,0.39c-14.18,1.19-27.51,5.06-39.52,11.06
			c-18.01,9.01-33.04,22.81-43.57,39.61c-10.53,16.8-16.57,36.61-16.57,57.59c0,3.05,0.13,6.13,0.39,9.23
			c1.19,14.18,5.06,27.51,11.06,39.52c9.01,18.01,22.81,33.04,39.61,43.57c16.8,10.53,36.61,16.57,57.59,16.57
			c3.05,0,6.13-0.13,9.23-0.39c14.18-1.19,27.51-5.06,39.52-11.06c18.01-9.01,33.04-22.81,43.57-39.61
			c10.53-16.8,16.57-36.61,16.57-57.59C286.46,174.74,286.33,171.66,286.07,168.57z M270.5,214.34
			c-6.75,17.06-18.11,31.94-32.66,42.95c-14.55,11.01-32.26,18.17-51.8,19.81c-2.85,0.24-5.67,0.36-8.48,0.36
			c-12.83,0-25.17-2.46-36.54-6.96c-17.06-6.75-31.94-18.11-42.95-32.66c-11.01-14.55-18.17-32.26-19.81-51.8
			c-0.24-2.85-0.36-5.67-0.36-8.48c0-12.83,2.46-25.17,6.96-36.54c6.75-17.06,18.11-31.94,32.66-42.95
			c14.55-11.01,32.26-18.17,51.8-19.81c2.85-0.24,5.67-0.36,8.48-0.36c12.83,0,25.17,2.46,36.54,6.96
			c17.06,6.75,31.94,18.11,42.95,32.66c11.01,14.55,18.17,32.26,19.81,51.8c0.24,2.85,0.36,5.67,0.36,8.48
			C277.46,190.63,275,202.97,270.5,214.34z"/>
		<path class="st4" d="M320.15,169.82c-1.05-18.99-5.77-36.93-13.44-53.14c-11.5-24.31-29.62-44.73-51.92-59.07
			C232.5,43.26,206,34.99,177.8,34.99c-2.65,0-5.31,0.07-7.99,0.22c-18.99,1.05-36.93,5.77-53.13,13.44
			c-24.31,11.5-44.73,29.62-59.07,51.92c-14.35,22.3-22.62,48.79-22.62,76.99c0,2.65,0.07,5.31,0.22,7.98
			c1.05,18.99,5.77,36.93,13.44,53.14c11.5,24.31,29.63,44.73,51.93,59.07c22.3,14.35,48.79,22.62,76.99,22.62
			c2.65,0,5.31-0.07,7.99-0.22c18.99-1.05,36.93-5.77,53.14-13.44c24.31-11.5,44.73-29.62,59.07-51.92
			c14.35-22.3,22.62-48.79,22.62-76.99C320.37,175.16,320.3,172.49,320.15,169.82z M302.69,228.23
			c-9.5,23.44-25.43,43.72-45.72,58.5c-20.29,14.78-44.92,24.07-71.86,25.56c-2.53,0.14-5.05,0.21-7.55,0.21
			c-17.77,0-34.8-3.47-50.42-9.8c-23.44-9.5-43.72-25.43-58.5-45.72c-14.78-20.29-24.07-44.92-25.56-71.86
			c-0.14-2.53-0.21-5.05-0.21-7.55c0-17.77,3.47-34.8,9.8-50.43c9.5-23.44,25.43-43.72,45.72-58.5
			c20.29-14.78,44.92-24.07,71.86-25.56c2.53-0.14,5.05-0.21,7.55-0.21c17.77,0,34.8,3.47,50.43,9.8
			c23.44,9.5,43.72,25.43,58.5,45.72c14.78,20.29,24.07,44.92,25.56,71.86c0.14,2.53,0.21,5.05,0.21,7.55
			C312.5,195.57,309.02,212.6,302.69,228.23z"/>
		<path class="st5" d="M354.23,171c-0.9-23.8-6.47-46.34-15.8-66.74C324.44,73.65,302,47.84,274.2,29.68
			C246.41,11.52,213.23,1,177.8,1c-2.26,0-4.52,0.04-6.8,0.13c-23.8,0.9-46.33,6.47-66.74,15.8C73.66,30.92,47.85,53.36,29.68,81.16
			C11.52,108.96,1,142.13,1,177.56c0,2.26,0.04,4.52,0.13,6.8c0.9,23.8,6.47,46.34,15.8,66.74c13.99,30.61,36.43,56.42,64.23,74.58
			c27.8,18.16,60.98,28.68,96.4,28.68c2.26,0,4.52-0.04,6.8-0.13c23.8-0.9,46.34-6.47,66.74-15.8
			c30.61-13.99,56.42-36.43,74.58-64.23c18.16-27.8,28.68-60.98,28.68-96.41C354.36,175.54,354.32,173.27,354.23,171z
			 M334.94,242.16c-12.26,29.84-32.79,55.53-58.85,74.07c-26.06,18.54-57.62,29.95-91.98,31.25c-2.19,0.08-4.37,0.12-6.54,0.12
			c-22.72,0-44.46-4.49-64.36-12.66c-29.84-12.26-55.53-32.79-74.07-58.85c-18.54-26.06-29.95-57.62-31.25-91.98
			c-0.08-2.19-0.12-4.37-0.12-6.54c0-22.73,4.49-44.47,12.67-64.36c12.26-29.84,32.8-55.53,58.85-74.07
			c26.06-18.54,57.62-29.95,91.98-31.25c2.19-0.08,4.37-0.12,6.54-0.12c22.73,0,44.47,4.49,64.36,12.66
			c29.84,12.26,55.53,32.79,74.07,58.85c18.54,26.06,29.95,57.62,31.25,91.98c0.08,2.19,0.12,4.37,0.12,6.54
			C347.6,200.52,343.11,222.26,334.94,242.16z"/>
	</g>
	<circle class="st1" cx="178.24" cy="177.94" r="13.58"/>
</g>
</svg>
