<svg xmlns="http://www.w3.org/2000/svg" xml:space="preserve" id="Ebene_1" width="186.8" height="186.9" x="0" y="0" version="1.1"><style id="style1" type="text/css">.st2{fill:#006eb9}</style><path id="rect1" d="M-48.4-57.2h283.5v396.9H-48.4z" style="fill:none"/><g id="g3" transform="translate(-48.4 -57.2)"><circle id="circle1" cx="141.8" cy="150.6" r="93.4" style="fill:#fff"/><g id="g2"><path id="rect2" d="M101.4 137.8h17.2v11.5h-17.2z" class="st2"/><path id="polygon2" d="M98.9 134.7h20l18-51.1z" class="st2"/><path id="path2" d="M235.2 150.6c0-51.6-41.8-93.4-93.4-93.4-51.6 0-93.4 41.8-93.4 93.4 0 38.2 23 71.1 55.9 85.6v-83.9H100c-.8 0-1.5-.7-1.5-1.5v-13H96c-.6 0-1.1-.3-1.4-.8-.3-.5-.2-1.1.1-1.6l45.7-61.2c.3-.4.7-.6 1.2-.6s.9.2 1.2.6l27.9 36.4c.2.3.4.7.3 1.1-.1.4-.3.8-.6 1-.3.2-.7.4-1.1.3-.4-.1-.8-.3-1-.6l-22.2-28.9 15.4 44.4c.3.8-.1 1.7-.9 1.9-.2.1-.3.1-.5.1-.6 0-1.2-.4-1.4-1l-17.1-49.2-19.4 55.1h26.3c.8 0 1.5.7 1.5 1.5s-.7 1.5-1.5 1.5h-26.8v11.5h46.7c.8 0 1.5.7 1.5 1.5s-.7 1.5-1.5 1.5h-61v85.2c10.7 4.2 22.3 6.6 34.5 6.6s23.9-2.3 34.6-6.6H164c-.8 0-1.5-.7-1.5-1.5s.7-1.5 1.5-1.5h11.8V229H164c-.8 0-1.5-.7-1.5-1.5s.7-1.5 1.5-1.5h11.8v-5.4H164c-.8 0-1.5-.7-1.5-1.5s.7-1.5 1.5-1.5h11.8v-5.4H164c-.8 0-1.5-.7-1.5-1.5s.7-1.5 1.5-1.5h11.8v-5.4H164c-.8 0-1.5-.7-1.5-1.5s.7-1.5 1.5-1.5h11.8v-5.4H164c-.8 0-1.5-.7-1.5-1.5s.7-1.5 1.5-1.5h11.8V187H164c-.8 0-1.5-.7-1.5-1.5s.7-1.5 1.5-1.5h11.8v-5.4H164c-.8 0-1.5-.7-1.5-1.5s.7-1.5 1.5-1.5h11.8v-5.4H164c-.8 0-1.5-.7-1.5-1.5s.7-1.5 1.5-1.5h11.8v-5.4H164c-.8 0-1.5-.7-1.5-1.5s.7-1.5 1.5-1.5h13.4c.8 0 1.5.7 1.5 1.5v76.1c33.1-14.4 56.3-47.4 56.3-85.8Zm-120.1 24c0 .8-.7 1.5-1.5 1.5s-1.5-.7-1.5-1.5v-11.9c0-.8.7-1.5 1.5-1.5s1.5.7 1.5 1.5zm13.7 0c0 .8-.7 1.5-1.5 1.5s-1.5-.7-1.5-1.5v-11.9c0-.8.7-1.5 1.5-1.5s1.5.7 1.5 1.5zm6.1 0c0 .8-.7 1.5-1.5 1.5s-1.5-.7-1.5-1.5v-11.9c0-.8.7-1.5 1.5-1.5s1.5.7 1.5 1.5zm13.5 0c0 .8-.7 1.5-1.5 1.5s-1.5-.7-1.5-1.5v-11.9c0-.8.7-1.5 1.5-1.5s1.5.7 1.5 1.5zm6.1 0c0 .8-.7 1.5-1.5 1.5s-1.5-.7-1.5-1.5v-11.9c0-.8.7-1.5 1.5-1.5s1.5.7 1.5 1.5z" class="st2"/></g><path id="path3" d="m230.6 134.6-28.8-2.8 11.2-15.3c.3-.4.2-.9-.1-1.2-.3-.3-.8-.3-1.2-.1l-15.1 11.6-3.2-28.8c-.1-.5-.5-.8-.9-.8-.5 0-.8.4-.9.8l-2.7 28.8-15.3-11.3c-.4-.3-.9-.2-1.2.1-.3.3-.3.8-.1 1.2l11.6 15.1-28.8 3.3c-.5.1-.8.4-.8.9s.4.8.8.9l28.8 2.7-11.2 15.3c-.3.4-.2.9.1 1.2.3.3.8.3 1.2.1l15.1-11.5 3.3 28.7c.1.5.4.8.9.8s.8-.4.9-.8l2.8-28.8 15.3 11.2c.4.3.9.2 1.2-.1.3-.3.3-.8.1-1.2l-11.5-15.1 28.7-3.3c.5-.1.8-.4.8-.9-.2-.3-.5-.7-1-.7z" style="fill:#16bade"/></g></svg>